<?xml version="1.0" standalone="no"?>
<!DOCTYPE svg PUBLIC "-//W3C//DTD SVG 20010904//EN"
 "http://www.w3.org/TR/2001/REC-SVG-20010904/DTD/svg10.dtd">
<svg version="1.0" xmlns="http://www.w3.org/2000/svg"
 width="1600.000000pt" height="1600.000000pt" viewBox="0 0 1600.000000 1600.000000"
 preserveAspectRatio="xMidYMid meet">

<g transform="translate(0.000000,1600.000000) scale(0.100000,-0.100000)"
fill="#000000" stroke="none">
<path d="M1850 12740 l0 -1060 2170 0 2170 0 0 -2822 c0 -1614 -4 -2898 -10
-2998 -14 -266 -45 -449 -112 -650 -162 -494 -520 -813 -1020 -909 -419 -80
-830 -34 -1150 131 -417 214 -683 640 -738 1183 -6 61 -13 129 -16 153 l-5 42
-1155 0 -1155 0 6 -127 c31 -638 160 -1159 405 -1643 393 -774 1051 -1323
1935 -1615 807 -267 1882 -296 2780 -75 1408 347 2302 1325 2545 2784 55 330
62 441 67 1055 l5 563 175 214 c96 118 178 214 181 214 4 0 763 -1082 1686
-2405 l1680 -2405 1423 0 c1136 0 1423 3 1416 12 -4 7 -1012 1441 -2241 3186
-1960 2785 -2232 3175 -2220 3190 7 9 942 1131 2078 2492 1136 1361 2071 2483
2079 2493 13 16 -55 17 -1311 17 l-1325 0 -1809 -2195 -1809 -2195 -3 2209 -2
2208 -53 7 c-28 3 -1540 6 -3359 6 l-3308 0 0 -1060z"/>
</g>
</svg>
